<svg width="125" height="125" viewBox="0 0 125 125" fill="none" xmlns="http://www.w3.org/2000/svg">
<g clip-path="url(#clip0_3_99)">
<path d="M112.539 82.0931C111.828 82.0931 111.252 81.5169 111.252 80.8059C111.252 75.3537 115.672 70.9339 121.124 70.9339H121.14C121.632 70.9339 122.094 70.7029 122.39 70.3099C122.685 69.917 122.779 69.4081 122.643 68.9357C117.824 52.2326 103.675 39.4861 86.2021 36.707C85.1342 33.7673 82.325 31.6641 79.0174 31.6641C75.7074 31.6641 72.8953 33.7673 71.8265 36.7074C50.1679 40.1531 33.6125 58.913 33.6125 81.5416V83.2791H6.21668C3.328 83.2791 0.98584 85.6212 0.98584 88.5099C0.98584 91.3986 3.328 93.7408 6.21668 93.7408H61.7322C61.7352 93.7408 61.7377 93.7403 61.7402 93.7403L122.842 93.7395C123.713 93.7395 124.419 93.0335 124.419 92.1631V83.6695C124.419 82.7991 123.713 82.0931 122.842 82.0931H112.539Z" fill="#EEEEEE" fill-opacity="0.63"/>
</g>
<defs>
<clipPath id="clip0_3_99">
<rect width="123.433" height="123.433" fill="white" transform="translate(0.98584 0.98584)"/>
</clipPath>
</defs>
</svg>
