<svg width="156" height="156" viewBox="0 0 156 156" fill="none" xmlns="http://www.w3.org/2000/svg">
<g clip-path="url(#clip0_3_104)">
<path d="M108.695 20.7574H46.7096C44.6833 20.7574 42.9751 22.2761 42.7439 24.2896C42.3047 28.1188 42.1337 31.9774 42.2424 35.8386L45.5561 153.766C45.5886 154.917 46.5304 155.833 47.6808 155.833H66.996C68.1088 155.833 69.0337 154.974 69.1161 153.864L76.4038 55.6269C76.4542 54.9498 77.0181 54.4261 77.6974 54.4261C78.3766 54.4261 78.9405 54.9498 78.9909 55.6269L86.2786 153.864C86.361 154.974 87.2854 155.833 88.3987 155.833H107.713C108.864 155.833 109.806 154.917 109.838 153.766L113.162 35.8401C113.27 31.9784 113.1 28.1193 112.661 24.2896C112.429 22.2719 110.725 20.7574 108.695 20.7574Z" fill="#EEEEEE" fill-opacity="0.63"/>
<path d="M109.202 0.845459H46.2027C43.9981 0.845459 42.2112 2.63237 42.2112 4.83743V10.5864C42.2112 12.791 43.9981 14.5779 46.2027 14.5779H109.202C111.406 14.5779 113.193 12.791 113.193 10.5864V4.83743C113.194 2.63237 111.406 0.845459 109.202 0.845459ZM71.5227 10.1147C70.1957 10.1147 69.1194 9.03899 69.1194 7.71142C69.1194 6.38437 70.1952 5.3081 71.5227 5.3081C72.8498 5.3081 73.9261 6.38385 73.9261 7.71142C73.9261 9.03899 72.8503 10.1147 71.5227 10.1147ZM83.8818 10.1147C82.5547 10.1147 81.4785 9.03899 81.4785 7.71142C81.4785 6.38437 82.5542 5.3081 83.8818 5.3081C85.2093 5.3081 86.2851 6.38385 86.2851 7.71142C86.2851 9.03899 85.2093 10.1147 83.8818 10.1147Z" fill="#EEEEEE" fill-opacity="0.63"/>
</g>
<defs>
<clipPath id="clip0_3_104">
<rect width="154.987" height="154.987" fill="white" transform="translate(0.20874 0.845459)"/>
</clipPath>
</defs>
</svg>
