<svg width="136" height="137" viewBox="0 0 136 137" fill="none" xmlns="http://www.w3.org/2000/svg">
<g clip-path="url(#clip0_3_81)">
<path d="M67.9582 21.0716C73.8215 21.0716 78.8859 17.3332 80.7052 11.8336C77.2343 12.7891 72.8102 13.3657 67.9582 13.3657C63.1068 13.3657 58.6827 12.7891 55.2122 11.8336C57.0305 17.3327 62.0945 21.0716 67.9582 21.0716Z" fill="#EEEEEE" fill-opacity="0.63"/>
<path d="M135.47 27.8344C135.191 27.053 134.612 26.4104 133.857 26.0605L108.05 14.1471C102.561 12.2875 96.9681 10.8186 91.321 9.74497C91.1222 9.70603 90.9244 9.68726 90.7292 9.68726C89.3313 9.68726 88.0795 10.6523 87.7681 12.0676C85.706 21.1458 77.6699 27.9425 67.9578 27.9425C58.2462 27.9425 50.2096 21.1463 48.148 12.0676C47.8328 10.6523 46.5833 9.68726 45.1863 9.68726C44.9912 9.68726 44.7933 9.70603 44.5946 9.74497C38.948 10.8186 33.3554 12.2875 27.8572 14.1471L2.05953 26.06C1.30012 26.41 0.716586 27.0526 0.451386 27.834C0.177026 28.6245 0.226493 29.4778 0.613071 30.2235L11.8165 52.3336C12.3409 53.3829 13.4077 54.0127 14.5363 54.0127C14.8276 54.0127 15.123 53.9706 15.4143 53.8831L27.8577 50.195V124.382C27.8577 126.067 29.2322 127.441 30.9214 127.441H104.996C106.68 127.441 108.051 126.066 108.051 124.382V50.196L120.503 53.884C120.794 53.9715 121.089 54.0136 121.38 54.0136C122.506 54.0136 123.569 53.3839 124.1 52.3345L135.308 30.2244C135.685 29.4783 135.739 28.625 135.47 27.8344Z" fill="#EEEEEE" fill-opacity="0.63"/>
</g>
<defs>
<clipPath id="clip0_3_81">
<rect width="135.36" height="135.36" fill="white" transform="translate(0.278259 0.884399)"/>
</clipPath>
</defs>
</svg>
