<svg width="125" height="125" viewBox="0 0 125 125" fill="none" xmlns="http://www.w3.org/2000/svg">
<path d="M79.1599 58.2552C75.3472 55.953 71.7282 53.344 68.339 50.4543L50.4412 27.1584C49.8852 26.4235 49.121 25.873 48.2479 25.5783C47.3747 25.2836 46.4331 25.2584 45.5455 25.5061C44.6579 25.7537 43.8654 26.2627 43.2709 26.9668C42.6765 27.671 42.3076 28.5377 42.2124 29.4543H42.1301V41.7975H27.3922C26.8462 41.7996 26.3053 41.693 25.801 41.4839C25.2966 41.2748 24.8389 40.9674 24.4545 40.5797C24.4545 40.5797 21.558 33.5687 17.4435 33.5687H13.3291C12.2379 33.5687 11.1914 34.0022 10.4198 34.7738C9.64817 35.5454 9.21469 36.5919 9.21469 37.6831V74.713H54.4734C66.8167 74.713 70.9311 82.9418 83.2744 82.9418H116.19V78.8274C116.19 66.4841 87.7755 63.1432 79.1599 58.2552ZM79.1599 91.1707C74.7274 91.0456 70.4022 89.7786 66.6027 87.4924C61.6608 84.6245 56.0715 83.0587 50.359 82.9418H9.21469V95.2851C9.21469 96.3763 9.64817 97.4228 10.4198 98.1944C11.1914 98.966 12.2379 99.3995 13.3291 99.3995H46.2445C47.3357 99.3995 48.3823 98.966 49.1539 98.1944C49.9255 97.4228 50.359 96.3763 50.359 95.2851V91.1707C54.7913 91.2968 59.1163 92.5637 62.9162 94.8489C67.8581 97.7168 73.4474 99.2826 79.1599 99.3995H112.075C113.167 99.3995 114.213 98.966 114.985 98.1944C115.756 97.4228 116.19 96.3763 116.19 95.2851V91.1707H79.1599Z" fill="#EEEEEE" fill-opacity="0.63"/>
</svg>
